<svg id="Layer_1" data-name="Layer 1" xmlns="http://www.w3.org/2000/svg" viewBox="0 0 213.51 241.86"><defs><style>.cls-1{fill:#b2714b;}.cls-1,.cls-10,.cls-11,.cls-12,.cls-13,.cls-14,.cls-2,.cls-3,.cls-4,.cls-5,.cls-6,.cls-7,.cls-8,.cls-9{fill-rule:evenodd;}.cls-2{fill:#a35c3c;}.cls-3{fill:#deb19b;}.cls-4{fill:#00acf4;}.cls-5{fill:#be876a;}.cls-6{fill:#0084f4;}.cls-11,.cls-7{fill:#c5c5c5;}.cls-7,.cls-8,.cls-9{stroke:#a2a2a2;stroke-miterlimit:10;}.cls-8{fill:#00abe9;}.cls-16,.cls-17,.cls-9{fill:#fff;}.cls-10{fill:#2d2d2d;}.cls-12{fill:#4a59ff;}.cls-13{fill:#0aff5d;}.cls-14{fill:#ffe13f;}.cls-15{fill:#f46000;}.cls-17{font-size:8.55px;font-family:ArialMT, Arial;}.cls-18{letter-spacing:-0.06em;}.cls-19{letter-spacing:0em;}</style></defs><title>hosting-y-dominios</title><g id="Artboard_1" data-name="Artboard 1"><path id="Rectangle_1_copy_3" data-name="Rectangle 1 copy 3" class="cls-1" d="M13.89,118.31,118.71,90.23V195.05L13.89,223.13Z" transform="translate(-11.95 -9.45)"/><path id="Rectangle_1_copy_2" data-name="Rectangle 1 copy 2" class="cls-2" d="M118.71,90.23l104.82,28.08V223.13L118.71,195.05Z" transform="translate(-11.95 -9.45)"/><path id="Rectangle_1_copy_5" data-name="Rectangle 1 copy 5" class="cls-3" d="M13.89,118.4l104.82,28.08V251.3L13.89,223.22Z" transform="translate(-11.95 -9.45)"/><path id="Rectangle_1_copy_5-2" data-name="Rectangle 1 copy 5" class="cls-4" d="M13.88,137.67,118.7,165.76v29.61L13.88,167.21Z" transform="translate(-11.95 -9.45)"/><path id="Rectangle_1_copy_6" data-name="Rectangle 1 copy 6" class="cls-5" d="M118.72,146.47l104.82-28.09V223.2L118.72,251.29Z" transform="translate(-11.95 -9.45)"/><path id="Rectangle_1_copy_6-2" data-name="Rectangle 1 copy 6" class="cls-6" d="M118.72,165.74l104.82-28.09v28.87L118.72,195.39Z" transform="translate(-11.95 -9.45)"/></g><polygon class="cls-7" points="1.94 108.87 6.48 110.08 111.33 82 106.79 80.78 1.94 108.87"/><polygon class="cls-7" points="6.54 110.16 11.08 111.37 115.93 83.29 111.39 82.08 6.54 110.16"/><polygon class="cls-7" points="11.61 111.46 16.15 112.67 121 84.59 116.46 83.37 11.61 111.46"/><polygon class="cls-7" points="16.56 112.76 21.1 113.97 125.95 85.89 121.41 84.67 16.56 112.76"/><polygon class="cls-7" points="21.39 114.06 25.93 115.27 130.79 87.19 126.25 85.97 21.39 114.06"/><polygon class="cls-7" points="26.11 115.35 30.65 116.56 135.5 88.48 130.96 87.27 26.11 115.35"/><polygon class="cls-7" points="30.98 116.69 35.53 117.9 140.38 89.82 135.84 88.6 30.98 116.69"/><polygon class="cls-7" points="35.86 117.95 40.4 119.16 145.25 91.08 140.71 89.86 35.86 117.95"/><polygon class="cls-7" points="40.58 119.28 45.12 120.49 149.97 92.41 145.43 91.2 40.58 119.28"/><polygon class="cls-7" points="45.57 120.58 50.11 121.79 154.96 93.71 150.42 92.49 45.57 120.58"/><polygon class="cls-7" points="50.43 121.91 54.97 123.12 159.82 95.04 155.28 93.82 50.43 121.91"/><polygon class="cls-7" points="55.36 123.17 59.9 124.39 164.75 96.3 160.21 95.09 55.36 123.17"/><polygon class="cls-8" points="60.16 124.44 64.7 125.65 169.55 97.57 165.01 96.36 60.16 124.44"/><polygon class="cls-7" points="64.91 125.77 69.45 126.98 174.3 98.9 169.76 97.68 64.91 125.77"/><polygon class="cls-7" points="69.74 127.04 74.28 128.25 179.13 100.17 174.59 98.95 69.74 127.04"/><polygon class="cls-7" points="74.55 128.33 79.09 129.54 183.94 101.46 179.4 100.25 74.55 128.33"/><polygon class="cls-7" points="79.38 129.66 83.92 130.87 188.78 102.79 184.24 101.57 79.38 129.66"/><polygon class="cls-7" points="84.31 130.96 88.85 132.17 193.7 104.09 189.16 102.87 84.31 130.96"/><polygon class="cls-7" points="89.2 132.25 93.74 133.47 198.59 105.38 194.05 104.17 89.2 132.25"/><polygon class="cls-7" points="94 133.55 98.55 134.76 203.4 106.68 198.86 105.47 94 133.55"/><polygon class="cls-7" points="102.19 135.76 106.73 136.97 211.58 108.89 207.04 107.68 102.19 135.76"/><polygon class="cls-7" points="98.87 134.85 103.41 136.06 208.26 107.98 203.72 106.76 98.87 134.85"/><polygon class="cls-7" points="169.55 97.57 169.55 1.87 165.01 0.65 165.01 96.36 169.55 97.57"/><polygon class="cls-7" points="60.16 28.74 64.7 29.95 169.55 1.87 165.01 0.65 60.16 28.74"/><polygon class="cls-7" points="64.7 125.65 64.7 29.99 60.16 28.74 60.16 124.44 64.7 125.65"/><polygon class="cls-9" points="169.55 1.87 64.7 29.99 64.7 37.02 64.7 125.65 169.55 97.57 169.55 1.87"/><polygon class="cls-10" points="64.7 29.99 169.55 1.87 169.55 12.09 64.7 40.2 64.7 29.99"/><polygon class="cls-11" points="74.99 37.2 159.27 14.6 159.27 49.75 74.99 72.52 74.99 37.2"/><polygon class="cls-12" points="74.99 77.36 102.19 70.06 102.19 105.33 74.99 112.67 74.99 77.36"/><polygon class="cls-13" points="131.88 102.55 159.08 95.26 159.08 100.5 131.88 107.89 131.88 102.55"/><polygon class="cls-13" points="103.59 110.17 130.79 102.87 130.79 108.11 103.59 115.5 103.59 110.17"/><polygon class="cls-13" points="74.99 118.16 102.19 110.86 102.19 116.11 74.99 123.5 74.99 118.16"/><polygon class="cls-14" points="114.17 66.66 159.17 54.59 159.17 57.91 114.17 70.06 114.17 66.66"/><polygon class="cls-14" points="114.17 72.49 159.17 60.42 159.17 63.74 114.17 75.89 114.17 72.49"/><polygon class="cls-14" points="114.17 78.64 159.17 66.57 159.17 69.89 114.17 82.04 114.17 78.64"/><polygon class="cls-14" points="114.17 84.52 159.17 72.45 159.17 75.77 114.17 87.92 114.17 84.52"/><polygon class="cls-14" points="114.17 90.97 159.17 78.9 159.17 82.22 114.17 94.37 114.17 90.97"/><polygon class="cls-14" points="114.17 97.4 159.17 85.33 159.17 88.65 114.17 100.8 114.17 97.4"/><circle class="cls-15" cx="70.6" cy="33.31" r="3.95"/><path class="cls-16" d="M140.29,162.1c.07,2.18.44,23.11.51,25.5l-7.19,2c0-1-.17-9.46-.23-12.27l-2.31.64c.05,2.8.2,11.26.22,12.29l-8.4,2.38c0-2.49-.4-23.48-.44-25.69l8.37-2.3c0,.79.11,6,.19,10.27l2.31-.64c-.08-4.22-.17-9.48-.19-10.26Z" transform="translate(-11.95 -9.45)"/><path class="cls-16" d="M156.35,171.1c0,2,.07,5.42,0,7a10.23,10.23,0,0,1-.81,3.94,3.74,3.74,0,0,1-2,1.93,26.26,26.26,0,0,1-3.18,1,32.08,32.08,0,0,1-3.27.83,2.61,2.61,0,0,1-2.49-.63,5.84,5.84,0,0,1-1.21-3.39c-.16-1.51-.29-5.09-.33-7,0-1.27,0-.33,0-1.72-.05-2-.05-5.34,0-6.86a8.52,8.52,0,0,1,1-3.82,4.59,4.59,0,0,1,2.38-1.93,30.65,30.65,0,0,1,3.35-1,25.68,25.68,0,0,1,3.09-.75,2.07,2.07,0,0,1,2.13.65,6.26,6.26,0,0,1,1,3.24c.13,1.44.25,4.81.29,6.79C156.33,170.68,156.31,169.77,156.35,171.1Zm-5.53-5a16,16,0,0,0-.24-3.13c-.12-.4-.35-.54-.7-.44a1,1,0,0,0-.68.7,13.12,13.12,0,0,0-.18,3.36c.14,6.75.1,3.7.24,10.59a26.12,26.12,0,0,0,.24,4c.11.45.36.6.74.5s.64-.44.73-1a32.2,32.2,0,0,0,.08-4.21C150.91,169.73,151,172.76,150.82,166.12Z" transform="translate(-11.95 -9.45)"/><path class="cls-16" d="M168.06,163.06l-4.23,1.15c0-1,0-1.56-.06-2.63a9.31,9.31,0,0,0-.21-2.28A.44.44,0,0,0,163,159c-.28.08-.49.34-.63.8a7.8,7.8,0,0,0-.17,2.11,10.38,10.38,0,0,0,.3,2.62,3,3,0,0,0,1.37,1.53c2.1,1.32,3.37.92,3.9,1.14s.83,1.87.91,5.52a22.54,22.54,0,0,1-.31,5.48,3.08,3.08,0,0,1-1.64,2,14.56,14.56,0,0,1-2.95,1,12.67,12.67,0,0,1-3.27.71,1.88,1.88,0,0,1-1.88-1.62,29.7,29.7,0,0,1-.57-6.07c0-.94,0-1.4,0-2.16l4.51-1.23c0,1.43,0,2.41.09,4.24a10.36,10.36,0,0,0,.24,2.59.49.49,0,0,0,.66.36c.32-.08.54-.36.68-.88a8.54,8.54,0,0,0,.18-2.27c-.05-2.2-.22-3.51-.52-4a4,4,0,0,0-2.25-1.58,5.86,5.86,0,0,0-2.42,0c-.4,0-.74-.23-1-1a13.49,13.49,0,0,1-.48-4,18.91,18.91,0,0,1,.44-5.68,3.12,3.12,0,0,1,1.76-1.89,19.08,19.08,0,0,1,2.89-.91,17.19,17.19,0,0,1,3.07-.7,1.5,1.5,0,0,1,1.68,1,22.12,22.12,0,0,1,.52,5.5C168,162.25,168.05,162.53,168.06,163.06Z" transform="translate(-11.95 -9.45)"/><path class="cls-16" d="M178.74,151.6c0,.44,0,2,.12,4.89l-2.73.73c.24,11.42.39,18.58.47,20.35l-4.49,1.24c-.08-1.78-.23-9-.47-20.38l-2.65.71c-.06-2.85-.09-4.42-.11-4.86Z" transform="translate(-11.95 -9.45)"/><path class="cls-16" d="M184.66,150c.1,2.26.48,23,.58,25.22l-4.85,1.32c-.1-2.2-.48-23-.58-25.22Z" transform="translate(-11.95 -9.45)"/><path class="cls-16" d="M199.65,145.94c.07,2.31.45,23.06.52,25.22l-5.41,1.47c-1.27-.66-2-9.46-3.26-11.83.07,2.68.23,11.65.27,12.63l-4.49,1.22c-.09-2.18-.47-23-.57-25.21l4.51-1.22c1.3.68,2.12,10.07,3.49,11,0-1.31-.22-10.86-.25-11.89Z" transform="translate(-11.95 -9.45)"/><path class="cls-16" d="M220.46,150.92,212,153.19c0-.88,0-1.49,0-2.76a18.44,18.44,0,0,0-.3-3.8c-.16-.45-.52-.59-1.07-.44a1.28,1.28,0,0,0-1,.88,13.56,13.56,0,0,0-.2,3.49c.13,6.85.09,4.15.22,11.18a10.89,10.89,0,0,0,.31,3.08c.18.43.52.55,1,.41a1.54,1.54,0,0,0,1.14-1.08,12.07,12.07,0,0,0,.26-3.44c0-1.73-.05-2.64-.08-4l-1.58.42c0-1.7,0-2.11-.05-2.26l9.77-2.67c0,.38.2,12.24.22,13.4l-5.39,1.45c-.31-.07-.47-.25-.78-.75a4.12,4.12,0,0,1-2.06,1.5c-.82.31-1.78.55-2.85.84a25.49,25.49,0,0,1-3.48.81,2.59,2.59,0,0,1-2.37-.66,5,5,0,0,1-1-2.71c-.15-1.15-.25-3.22-.3-5.45-.07-3.86-.05-2-.11-5.06a51.73,51.73,0,0,1,.27-7.14,5.12,5.12,0,0,1,2.32-3.61c1.32-.87,3.08-1.24,5.39-1.86a28.78,28.78,0,0,1,5.92-1.29c1.64,0,2.78.5,3.32,1.74a19.84,19.84,0,0,1,.89,6.3Z" transform="translate(-11.95 -9.45)"/><text class="cls-17" transform="matrix(1.07, -0.28, 0.01, 1, 76.12, 34.71)">ww<tspan class="cls-18" x="12.35" y="0">w</tspan><tspan class="cls-19" x="18.06" y="0">.tudominio.com</tspan></text></svg>