<?xml version="1.0" encoding="utf-8"?>
<!-- Generator: Adobe Illustrator 23.0.0, SVG Export Plug-In . SVG Version: 6.00 Build 0)  -->
<svg version="1.1" id="Layer_1" xmlns="http://www.w3.org/2000/svg" xmlns:xlink="http://www.w3.org/1999/xlink" x="0px" y="0px"
	 viewBox="0 0 213.5 241.9" style="enable-background:new 0 0 213.5 241.9;" xml:space="preserve">
<style type="text/css">
	.st0{fill-rule:evenodd;clip-rule:evenodd;fill:#B2714B;}
	.st1{fill-rule:evenodd;clip-rule:evenodd;fill:#A35C3C;}
	.st2{fill-rule:evenodd;clip-rule:evenodd;fill:#DEB19B;}
	.st3{fill-rule:evenodd;clip-rule:evenodd;fill:#00ACF4;}
	.st4{fill-rule:evenodd;clip-rule:evenodd;fill:#BE876A;}
	.st5{fill-rule:evenodd;clip-rule:evenodd;fill:#0084F4;}
	.st6{fill-rule:evenodd;clip-rule:evenodd;fill:#C5C5C5;stroke:#A2A2A2;stroke-miterlimit:10;}
	.st7{fill-rule:evenodd;clip-rule:evenodd;fill:#00ABE9;stroke:#A2A2A2;stroke-miterlimit:10;}
	.st8{fill-rule:evenodd;clip-rule:evenodd;fill:#FFFFFF;stroke:#A2A2A2;stroke-miterlimit:10;}
	.st9{fill-rule:evenodd;clip-rule:evenodd;fill:#2D2D2D;}
	.st10{fill-rule:evenodd;clip-rule:evenodd;fill:#C5C5C5;}
	.st11{fill-rule:evenodd;clip-rule:evenodd;fill:#4A59FF;}
	.st12{fill-rule:evenodd;clip-rule:evenodd;fill:#0AFF5D;}
	.st13{fill-rule:evenodd;clip-rule:evenodd;fill:#FFE13F;}
	.st14{fill:#F46000;}
	.st15{fill:#FFFFFF;}
	.st16{font-family:'ArialMT';}
	.st17{font-size:8.5504px;}
	.st18{font-family:'Impact';}
	.st19{font-size:23px;}
</style>
<title>hosting-y-dominios</title>
<g id="Artboard_1">
	<path id="Rectangle_1_copy_3" class="st0" d="M1.9,108.9l104.8-28.1v104.8L1.9,213.7V108.9z"/>
	<path id="Rectangle_1_copy_2" class="st1" d="M106.8,80.8l104.8,28.1v104.8l-104.8-28.1V80.8z"/>
	<path id="Rectangle_1_copy_5" class="st2" d="M1.9,109L106.8,137v104.8L1.9,213.8V109z"/>
	<path id="Rectangle_1_copy_5-2" class="st3" d="M1.9,128.2l104.8,28.1v29.6L1.9,157.8V128.2z"/>
	<path id="Rectangle_1_copy_6" class="st4" d="M106.8,137l104.8-28.1v104.8l-104.8,28.1V137z"/>
	<path id="Rectangle_1_copy_6-2" class="st5" d="M106.8,156.3l104.8-28.1v28.9l-104.8,28.9V156.3z"/>
</g>
<polygon class="st6" points="1.9,108.9 6.5,110.1 111.3,82 106.8,80.8 "/>
<polygon class="st6" points="6.5,110.2 11.1,111.4 115.9,83.3 111.4,82.1 "/>
<polygon class="st6" points="11.6,111.5 16.1,112.7 121,84.6 116.5,83.4 "/>
<polygon class="st6" points="16.6,112.8 21.1,114 125.9,85.9 121.4,84.7 "/>
<polygon class="st6" points="21.4,114.1 25.9,115.3 130.8,87.2 126.3,86 "/>
<polygon class="st6" points="26.1,115.3 30.6,116.6 135.5,88.5 131,87.3 "/>
<polygon class="st6" points="31,116.7 35.5,117.9 140.4,89.8 135.8,88.6 "/>
<polygon class="st6" points="35.9,117.9 40.4,119.2 145.3,91.1 140.7,89.9 "/>
<polygon class="st6" points="40.6,119.3 45.1,120.5 150,92.4 145.4,91.2 "/>
<polygon class="st6" points="45.6,120.6 50.1,121.8 155,93.7 150.4,92.5 "/>
<polygon class="st6" points="50.4,121.9 55,123.1 159.8,95 155.3,93.8 "/>
<polygon class="st6" points="55.4,123.2 59.9,124.4 164.8,96.3 160.2,95.1 "/>
<polygon class="st7" points="60.2,124.4 64.7,125.7 169.6,97.6 165,96.4 "/>
<polygon class="st6" points="64.9,125.8 69.4,127 174.3,98.9 169.8,97.7 "/>
<polygon class="st6" points="69.7,127 74.3,128.3 179.1,100.2 174.6,98.9 "/>
<polygon class="st6" points="74.6,128.3 79.1,129.5 183.9,101.5 179.4,100.3 "/>
<polygon class="st6" points="79.4,129.7 83.9,130.9 188.8,102.8 184.2,101.6 "/>
<polygon class="st6" points="84.3,131 88.8,132.2 193.7,104.1 189.2,102.9 "/>
<polygon class="st6" points="89.2,132.3 93.7,133.5 198.6,105.4 194.1,104.2 "/>
<polygon class="st6" points="94,133.6 98.6,134.8 203.4,106.7 198.9,105.5 "/>
<polygon class="st6" points="102.2,135.8 106.7,137 211.6,108.9 207,107.7 "/>
<polygon class="st6" points="98.9,134.9 103.4,136.1 208.3,108 203.7,106.8 "/>
<polygon class="st6" points="169.6,97.6 169.6,1.9 165,0.6 165,96.4 "/>
<polygon class="st6" points="60.2,28.7 64.7,30 169.6,1.9 165,0.6 "/>
<polygon class="st6" points="64.7,125.7 64.7,30 60.2,28.7 60.2,124.4 "/>
<polygon class="st8" points="169.6,1.9 64.7,30 64.7,37 64.7,125.7 169.6,97.6 "/>
<polygon class="st9" points="64.7,30 169.6,1.9 169.6,12.1 64.7,40.2 "/>
<polygon class="st10" points="75,37.2 159.3,14.6 159.3,49.8 75,72.5 "/>
<polygon class="st11" points="75,77.4 102.2,70.1 102.2,105.3 75,112.7 "/>
<polygon class="st12" points="131.9,102.6 159.1,95.3 159.1,100.5 131.9,107.9 "/>
<polygon class="st12" points="103.6,110.2 130.8,102.9 130.8,108.1 103.6,115.5 "/>
<polygon class="st12" points="75,118.2 102.2,110.9 102.2,116.1 75,123.5 "/>
<polygon class="st13" points="114.2,66.7 159.2,54.6 159.2,57.9 114.2,70.1 "/>
<polygon class="st13" points="114.2,72.5 159.2,60.4 159.2,63.7 114.2,75.9 "/>
<polygon class="st13" points="114.2,78.6 159.2,66.6 159.2,69.9 114.2,82 "/>
<polygon class="st13" points="114.2,84.5 159.2,72.4 159.2,75.8 114.2,87.9 "/>
<polygon class="st13" points="114.2,91 159.2,78.9 159.2,82.2 114.2,94.4 "/>
<polygon class="st13" points="114.2,97.4 159.2,85.3 159.2,88.7 114.2,100.8 "/>
<circle class="st14" cx="70.6" cy="33.3" r="3.9"/>
<text transform="matrix(1.0699 -0.28 9.999500e-03 0.9999 76.1202 34.7094)" class="st15 st16 st17">ww</text>
<text transform="matrix(1.0699 -0.28 9.999500e-03 0.9999 89.3345 31.2515)" class="st15 st16 st17">w</text>
<text transform="matrix(1.0699 -0.28 9.999500e-03 0.9999 95.4442 29.6527)" class="st15 st16 st17">.tudominio.com</text>
<text transform="matrix(1.1005 -0.3022 1.792583e-02 0.9998 118.5752 177.7217)" class="st15 st18 st19">HOSTING</text>
</svg>
